<?xml version="1.0" encoding="utf-8" ?>
<svg xmlns="http://www.w3.org/2000/svg" xmlns:xlink="http://www.w3.org/1999/xlink" width="1024" height="1024">
   <path fill="#276388" d="M446.132 427.971C463.993 446.822 498.87 474.883 512.656 494.22C533.56 523.543 493.922 562.714 464.29 540.495C459.494 536.899 455.323 531.999 451.045 527.793L404.556 481.942C371.327 449.816 348.356 424.281 341.423 375.033C329.141 287.794 387.484 208.476 472.133 188.632C481.438 186.45 490.897 185.266 500.358 183.987C546.582 183.088 593.441 195.614 627.927 227.594C638.485 237.386 670.236 267.185 676.46 277.311C690.309 299.837 671.528 327.083 646.549 326.823C625.518 326.604 603.015 293.735 586.524 279.216C543.549 241.38 478.189 240.652 436.791 281.631C403.272 314.81 396.926 373.596 428.481 410.312C433.862 416.574 440.294 422.115 446.132 427.971Z"/>
   <path fill="#E33913" d="M407.999 688.087C419.18 671.426 439.371 653.653 452.576 637.178C458.697 640.704 464.799 644.151 471.376 646.778C552.733 679.269 635.365 608.743 611.831 523.012C605.257 499.064 586.206 485.445 568.889 468.946C556.163 456.821 543.802 444.275 531.115 432.093C514.908 416.529 495.85 400.882 510.196 375.622C519.647 358.983 543.247 353.898 559.308 363.835C571.981 371.675 601.535 404.338 615.279 417.456C647.369 448.082 671.453 473.75 681.195 519.499C700.171 608.612 640.259 700.923 551.012 719.586C504.907 729.227 444.467 719.989 407.999 688.087Z"/>
   <path fill="#FDC901" d="M452.576 637.178C439.371 653.653 419.18 671.426 407.999 688.087C397.42 681.071 389.291 670.362 380.251 661.562L350.66 632.598C340.428 622.699 327.679 613.604 326.073 598.269C324.102 579.447 338.538 562.343 357.27 560.462C376.182 558.563 386.346 572.69 398.423 584.672C415.325 601.442 434.699 622.78 452.576 637.178Z"/>
</svg>
